# xmcd
#
# Track frame offsets: 
#        150
#        14615
#        33598
#        46358
#        63795
#        81453
#        95598
#        117320
#        136180
#        149950
#        168380
#        186918
#        200015
#        232488
#        250878
#        268935
#        297620
#
# Disc length: 4264 seconds
#
# Revision: 1
# Processed by: cddbd v1.5.2PL0 Copyright (c) Steve Scherf et al.
# Submitted via: ExactAudioCopy v0.99pb5
#
DISCID=1910a611
DTITLE=Various Artist - Серебряный Диск
DYEAR=1994
DGENRE=Pop
TTITLE0=Алёна Апина - Узелки
TTITLE1=Татьяна Овсиенко - Морозов
TTITLE2=Андрей Державин - Качели
TTITLE3=Марина Журавлёва - Белая Черёмуха
TTITLE4=Люба Успенская - Кабриолет
TTITLE5=Ирина Аллегрова - Нежданный Гость
TTITLE6=Наталья Гулькина - Дневной Ангел
TTITLE7=Богдан Титомир - Нет Проблем
TTITLE8=Наталья Ветлицкая - Голубой Кот
TTITLE9=Академия - Тома
TTITLE10=Вадим Казаченко - На Летящем Коне
TTITLE11=Евгений Осин - Не Ходи Со Мною Рядом
TTITLE12=Сергей Крылов - Мисс U
TTITLE13=Анастасия - Моим Врагам
TTITLE14=Аркадий Укупник - Сим-Сим
TTITLE15=Михаил Шуфутинский - Третье Сентября
TTITLE16=Алла Пугачёва - Любовь, Похожая На Сон
EXTD=
EXTT0=
EXTT1=
EXTT2=
EXTT3=
EXTT4=
EXTT5=
EXTT6=
EXTT7=
EXTT8=
EXTT9=
EXTT10=
EXTT11=
EXTT12=
EXTT13=
EXTT14=
EXTT15=
EXTT16=
PLAYORDER=
